<svg xmlns="http://www.w3.org/2000/svg" viewBox="0 0 64 760" role="img" aria-labelledby="title desc">
  <title id="title">Atlas binder edge</title>
  <desc id="desc">A subtle vertical row of punched paper holes and dark metal binder rings.</desc>
  <defs>
    <filter id="softShadow" x="-40%" y="-20%" width="180%" height="140%">
      <feDropShadow dx="0.7" dy="1.2" stdDeviation="1.1" flood-color="#1d1f1e" flood-opacity="0.18"/>
    </filter>
    <linearGradient id="ringMetal" x1="0" y1="0" x2="1" y2="0">
      <stop offset="0" stop-color="#4b4b48"/>
      <stop offset="0.45" stop-color="#1f211f"/>
      <stop offset="0.72" stop-color="#5a5a56"/>
      <stop offset="1" stop-color="#252725"/>
    </linearGradient>
  </defs>
  <g fill="none" stroke-linecap="round" stroke-linejoin="round" filter="url(#softShadow)">
    <g stroke="url(#ringMetal)" stroke-width="3.1">
      <path d="M6 74 C19 74 18 92 30 92"/>
      <path d="M6 214 C19 214 18 232 30 232"/>
      <path d="M6 354 C19 354 18 372 30 372"/>
      <path d="M6 494 C19 494 18 512 30 512"/>
      <path d="M6 634 C19 634 18 652 30 652"/>
    </g>
    <g fill="#f3eee2" stroke="#9b978d" stroke-width="1.15">
      <ellipse cx="33" cy="92" rx="7.3" ry="6.1"/>
      <ellipse cx="33" cy="232" rx="7.3" ry="6.1"/>
      <ellipse cx="33" cy="372" rx="7.3" ry="6.1"/>
      <ellipse cx="33" cy="512" rx="7.3" ry="6.1"/>
      <ellipse cx="33" cy="652" rx="7.3" ry="6.1"/>
    </g>
    <g stroke="#cbc4b5" stroke-width="0.8" opacity="0.75">
      <path d="M27 86.8c2.2-1.5 9.7-1.2 12 1.1"/>
      <path d="M27 226.8c2.2-1.5 9.7-1.2 12 1.1"/>
      <path d="M27 366.8c2.2-1.5 9.7-1.2 12 1.1"/>
      <path d="M27 506.8c2.2-1.5 9.7-1.2 12 1.1"/>
      <path d="M27 646.8c2.2-1.5 9.7-1.2 12 1.1"/>
    </g>
  </g>
</svg>
